<svg id="Camada_1" data-name="Camada 1" xmlns="http://www.w3.org/2000/svg" viewBox="0 0 121.52 90.79"><defs><style>.cls-1,.cls-2,.cls-3{isolation:isolate;}.cls-2,.cls-3{font-size:16.97px;font-family:Montserrat-Black, Montserrat;font-weight:800;}.cls-2,.cls-3,.cls-4{fill:#fff;}.cls-3{letter-spacing:0.01em;}</style></defs><g class="cls-1"><text class="cls-2" transform="translate(0 86.21) scale(1.01 1)">GNOME</text><text class="cls-3" transform="translate(69.18 86.21) scale(1.01 1)">L</text><text class="cls-2" transform="translate(79.89 86.21) scale(1.01 1)">AND</text></g><path class="cls-4" d="M60,73.45a4.93,4.93,0,0,0,2.35-.88.4.4,0,0,1,.27-.51,7.37,7.37,0,0,0,1.24-.66,1.79,1.79,0,0,1,2.34-.11,1.42,1.42,0,0,0,1.6,0c.26-.14.53-.25.81-.37A2.46,2.46,0,0,0,70,70.37c2.39-.91,6.12-1,6.9-1,.26,0,.17-.13.41-.1.09-.24.24-.23.12-.43,0,0-.12-.35.36-.65.3-.2.29-.43.1-.71-.34-.5-.67-1-1-1.55A11.31,11.31,0,0,1,77.9,65c.37-.26.36-.48.08-.78s-.49-.58-.81-1H89.66V22h-.61l-6.53,0a5.49,5.49,0,0,1-.81,0,.53.53,0,0,1-.33-.2L77.25,16A22.54,22.54,0,0,0,72,10.56a41.54,41.54,0,0,0-3.94-2.5c-2.45-1.36-5-2.65-7.45-3.93a1.71,1.71,0,0,0-1.09-.19,31.45,31.45,0,0,0-6.3,2.22A8.22,8.22,0,0,0,48.4,12a8.75,8.75,0,0,0-.14,2.11.9.9,0,0,0,.9.86,1.07,1.07,0,0,0,1.18-.73c.1-.26.17-.53.27-.79a3,3,0,0,1,1.29-1.73,1.89,1.89,0,0,1,1.26-.35,5,5,0,0,1,3.3,2.14A2.32,2.32,0,0,0,58,14.71l.87.2c.74.15.73.15.53.86a38.47,38.47,0,0,1-2.78,6.05.59.59,0,0,1-.47.19L41,22c-.67,0-.67,0-.67.65q0,20.09,0,40.15c0,.14,0,.28,0,.42h9.43q-.08.33-.18.66a4.83,4.83,0,0,0-.35,2.68,5,5,0,0,0,1.11,2.72,1.69,1.69,0,0,0,2.33.29A.8.8,0,0,0,53,69c-.12-.63-.34-1.25-.52-1.9-.34,0-.36,0-.34.35a13.59,13.59,0,0,0,.16,1.43c.07.41,0,.55-.45.52a1.51,1.51,0,0,1-1.13-.69,4.43,4.43,0,0,1,0-5.38A3.25,3.25,0,0,0,51.46,61c0-1.26-.1-2.51-.06-3.77a9.84,9.84,0,0,1,.35-1.86c.07-.31.25-.41.6-.28a9.83,9.83,0,0,0,1.32.34c.46.09.92.15,1.44.23-.42,1.87-.8,3.71-1.24,5.53a.81.81,0,0,0,.33,1,2.72,2.72,0,0,1,1.27,1.74,27.63,27.63,0,0,1,.14,3.52c0,.5-.63.84-1.13.72l-.06,0A.79.79,0,0,1,54,67.1c0-.15.12-.29.16-.44a1.62,1.62,0,0,0-.42-1.54,1.8,1.8,0,0,0-.1.65,2.21,2.21,0,0,1-.06.81,1.63,1.63,0,0,0-.11.23,1.56,1.56,0,0,0,.92,2c-.13.85-4.15,1.71-4.34,2.56a.84.84,0,0,0,.53,1A11.08,11.08,0,0,0,56,73.93m4,.41M57.59,22.53c.87-1.7,1.73-3.41,2.53-5.15a7.65,7.65,0,0,0,.62-2.16c.1-.69-.3-1.09-1-1.25a7.06,7.06,0,0,0-1.12-.18,1.47,1.47,0,0,1-1.3-.77,5.1,5.1,0,0,0-3.27-2.35l-.09,0A3.47,3.47,0,0,0,49.67,13c-.08.25-.18.5-.27.75l-.18,0a4.45,4.45,0,0,1,0-.73,7.63,7.63,0,0,1,3.63-5.42,26.89,26.89,0,0,1,6.77-2.8.75.75,0,0,1,.49.07,70.26,70.26,0,0,1,11,6.26,18.54,18.54,0,0,1,4,3.8q2.73,3.63,5.27,7.39A12,12,0,0,1,82.54,27a18,18,0,0,1-.14,6.66c-.11.56-.28,1.1-.44,1.72a2,2,0,0,0,1.46-.92,5.38,5.38,0,0,1-.07.69,6.59,6.59,0,0,1-3.26,4,16,16,0,0,1-6,2.06,24.86,24.86,0,0,1-6.56.18,14.92,14.92,0,0,1-8-3,5.9,5.9,0,0,1-1.5-2c-.23-.45-.44-.91-.65-1.37l.62-.1c-.14-.69-.28-1.35-.39-2-.3-1.85-.63-3.7-.88-5.55A8,8,0,0,1,57.59,22.53ZM50,58c.06.79.21,1.57.29,2.36a16.29,16.29,0,0,1,.06,1.71.43.43,0,0,1-.32.32c-2.94,0-5.87,0-8.85,0V22.83H56.22a8.17,8.17,0,0,0-.56,3.82c.18,1.62.38,3.23.6,4.85.15,1.1.35,2.19.55,3.36-.65-.56-1.34-1.19-2.08-.24h0a1.45,1.45,0,0,0,.31,2c0-.35.08-.7.14-1,.15-.58.43-.68.91-.31a6.67,6.67,0,0,1,.86.82c-.65,0-.91.57-.65,1.74a1.57,1.57,0,0,1,.11-2,4.35,4.35,0,0,0-.41-.34c-.29-.19-.49-.11-.61.21a2.49,2.49,0,0,0,1,3c.52.43,1,.24,1.7-.07a2.28,2.28,0,0,1-.18.52c-1.09,1.42-2.13,2.89-3.3,4.25a14.85,14.85,0,0,0-2.4,3.81,13.71,13.71,0,0,1-.69,1.32q-1.29,2.2-2.59,4.38c-.2.33,0,.51.21.67.42.35.87.67,1.35,1A6.94,6.94,0,0,0,50,58ZM88.9,62.41H77.75A.76.76,0,0,1,77,62c-.41-.63-.88-1.22-1.28-1.84a.55.55,0,0,1,.07-.51,6.64,6.64,0,0,0,1.42-5,15.35,15.35,0,0,0-.63-2.3l-.21,0c0,.31,0,.62.05.93a10,10,0,0,1-.35,4.32c-.26.67-.64,1.3-1,1.94l-.14,0,.49-2.74-.14,0c0,.12-.08.25-.13.38-.28.74-.53,1.49-.85,2.21a.54.54,0,0,0,.09.69c.72.85,1.42,1.73,2.16,2.64l-.62.38,1.1,1.49a10.24,10.24,0,0,1-1,.77c-.44.27-.42.53-.12.88s.51.71.78,1.1a2.13,2.13,0,0,1-.4.33c-1.72,1-7.35,2-9.08,2.89a.94.94,0,0,1-.62,0,3.28,3.28,0,0,1-.85-.39,1.35,1.35,0,0,0-1.58,0,20.59,20.59,0,0,1-6.45,2.45,9.69,9.69,0,0,1-6.35-.81.5.5,0,0,1-.33-.64c.17-.87,4.18-1.75,4.33-2.62a2.38,2.38,0,0,1,.28-.55A3.43,3.43,0,0,0,56.2,67a18.91,18.91,0,0,0-.11-3.1A2.38,2.38,0,0,0,54.89,62a.46.46,0,0,1-.14-.37c.41-1.81.85-3.62,1.26-5.43.09-.39.23-.64.71-.6a.65.65,0,0,0,.51-.3c.51-1.06,1-2.12,1.42-3.19.06-.14,0-.34-.08-.51-.14.07-.34.11-.41.23a22.78,22.78,0,0,0-1.35,2.23,1.07,1.07,0,0,1-1.24.71,13.06,13.06,0,0,1-4.94-1.29c-.6-.32-.62-.34-.31-.91,1-1.83,2.06-3.63,3-5.48a11.72,11.72,0,0,1,3.24-4A.8.8,0,0,1,57,43l-.68,1.89.08.06,1.21-1.31.58,5h.15l.58-2.37.07,0c.15,1,.32,2,.44,3a18.44,18.44,0,0,1,.17,2.35,6.73,6.73,0,0,1-.27,1.26l.11,0,1.27-2.5c.16,1,.27,2,.46,2.87a4.7,4.7,0,0,1-.58,2.67c1.07-1.06,1.12-2.48,1.49-3.8A12,12,0,0,0,63,56.31c-.17-3.83-.13-7.6,2.39-10.91l-2.41,1.84a2.84,2.84,0,0,1,.16-.38,5.87,5.87,0,0,1,3.53-3.16,16.55,16.55,0,0,0,2.58-1.33,3.44,3.44,0,0,1,2-.54l-.42.3a1.85,1.85,0,0,0-1,2.4A2.28,2.28,0,0,0,72.24,46a2.5,2.5,0,0,0,.38-.06,2.28,2.28,0,0,0,1.67-2.74,7.36,7.36,0,0,0-1-1.5.68.68,0,0,1,.84.21,11.53,11.53,0,0,0,3.69,2.2A9.32,9.32,0,0,1,82,47.57a2.11,2.11,0,0,0,.36.43,22.45,22.45,0,0,0-2.69-6.5l.1-.08.86.66L80,40c.15-.13.39-.3.61-.48.87-.74,1.78-1.44,2.58-2.25A3.71,3.71,0,0,0,84.22,35c.07-.67-.16-1-.79-1.13.36-3.76.77-7.53-1.45-11H88.9Z" transform="translate(-5.05 -3.92)"/><path class="cls-4" d="M65.13,48.62A14.39,14.39,0,0,0,65.69,55c.43,1.31.87,2.61,1.29,3.92.07.2.1.4.15.6l-.13.06a21.18,21.18,0,0,1-1.18-1.93,16.57,16.57,0,0,1-1.61-5.41A5.1,5.1,0,0,1,65.13,48.62Z" transform="translate(-5.05 -3.92)"/><path class="cls-4" d="M79.2,48.38c.14.14.34.25.4.42a7.44,7.44,0,0,1,.55,1.85A10.44,10.44,0,0,1,78.84,57a6.14,6.14,0,0,1-1.18,1.36,27,27,0,0,0,1.62-4.82,14.32,14.32,0,0,0-.28-5Z" transform="translate(-5.05 -3.92)"/><path class="cls-4" d="M67.69,55.45c1.51,2.49,1.82,5.47,3.19,8-.36-.41-.75-.81-1.07-1.25A13,13,0,0,1,68,57.36c-.13-.62-.25-1.25-.38-1.88Z" transform="translate(-5.05 -3.92)"/><path class="cls-4" d="M78.79,46c2.15.78,3.88,3.78,3.93,6.78-.52-1.11-1-2.34-1.66-3.48S79.59,47.14,78.79,46Z" transform="translate(-5.05 -3.92)"/><path class="cls-4" d="M80.7,53.94l-.38,1.87-.23-.05.41-1.85Z" transform="translate(-5.05 -3.92)"/></svg>